<?xml version="1.0" encoding="UTF-8"?> <svg xmlns="http://www.w3.org/2000/svg" id="Capa_1" data-name="Capa 1" viewBox="0 0 40 40"><defs><style> .cls-1 { fill: #fff; } .cls-2 { fill: #ff8100; } </style></defs><circle class="cls-2" cx="20" cy="20" r="17.22"></circle><g><path class="cls-1" d="m30.31,17.91c-.12-.14-.27-.25-.44-.33-.2-.09-.34-.23-.41-.44-.1-.3-.26-.56-.52-.74-.1-.07-.21-.14-.32-.18-.09-.02-.11-.07-.11-.15,0-.76,0-1.51,0-2.26,0-.76-.47-1.39-1.19-1.6-.15-.04-.31-.06-.46-.06h-2.61q-.13,0-.18-.13c-.18-.53-.55-.87-1.1-1.01-.03,0-.06-.02-.09-.03h-9.52c-.2.04-.4.11-.57.22-.34.22-.55.53-.65.91-.01.04-.02.08-.03.12v5.76c.06.28.18.55.37.76.29.32.66.49,1.09.49.6,0,1.19,0,1.79,0q.13,0,.13.13c0,.56,0,1.12,0,1.67,0,.13,0,.14-.13.13-.26,0-.51.01-.74.14-.41.22-.63.57-.64,1.03-.02.47,0,.95,0,1.42,0,.67.54,1.18,1.21,1.18h1.6c.12,0,.13,0,.13.12v4.46c0,.12,0,.12-.13.12-.48,0-.96,0-1.44,0-.32,0-.56.15-.69.44-.06.13-.07.27-.05.41.01.14-.03.23-.16.31-.61.41-.67,1.29-.14,1.8.16.15.35.25.56.32h.49c.45-.12.75-.38.89-.81.04-.14.07-.29.05-.44-.01-.07.01-.11.1-.11,1.16,0,2.33,0,3.5,0,.06,0,.1,0,.09.08-.06.58.31,1.1.87,1.25.02,0,.04,0,.07.02h.45c.23-.06.42-.15.58-.3.57-.54.47-1.47-.2-1.87-.06-.03-.08-.07-.08-.14,0-.1,0-.2,0-.29-.04-.4-.34-.67-.74-.67-.48,0-.96,0-1.44,0-.13,0-.14,0-.14-.13v-4.44q0-.13.14-.13h1.55c.72,0,1.23-.51,1.25-1.23,0-.08,0-.16,0-.24,0-.07.02-.1.09-.1.47,0,.95,0,1.42,0,.35,0,.63.3.63.66v1.83c0,1.02.69,1.86,1.7,2.04,1.1.21,2.21-.59,2.37-1.7.02-.13.03-.27.03-.4v-4.15c0-.07.02-.11.1-.12.84-.17,1.44-.64,1.8-1.42.1-.22.15-.45.19-.69v-.93c-.05-.23-.14-.45-.3-.63Zm-16.65.72c-.32,0-.58-.11-.77-.38-.1-.15-.14-.31-.14-.49v-5.26c0-.51.37-.88.88-.88h9.02c.41,0,.74.26.83.65.02.08.03.16.03.25v5.21c0,.53-.37.89-.9.89h-8.95Zm6.45.76v1.7c0,.11,0,.11-.11.11h-3.73c-.11,0-.11,0-.11-.11v-1.71c0-.11,0-.11.11-.11h3.72c.12,0,.12,0,.12.12Zm-5,12.95c-.29,0-.53-.24-.52-.54,0-.29.24-.53.53-.53s.53.25.53.54-.24.53-.54.53Zm6.56-.54c0,.3-.23.54-.53.54s-.53-.24-.53-.53.24-.53.53-.53.53.24.53.53Zm-.85-1.47c.19,0,.23.05.2.25,0,.04-.03.06-.07.06-.23.04-.42.14-.6.29-.03.04-.08.03-.13.03h-4.18c-.06,0-.11-.01-.15-.06-.16-.14-.34-.23-.55-.26-.07-.01-.1-.04-.09-.11,0-.03,0-.06,0-.08,0-.09.03-.12.12-.12h5.46Zm-3.25-.76v-4.49c0-.1,0-.11.11-.11h.9c.11,0,.11,0,.11.11v4.47q0,.12-.12.12h-.89c-.1,0-.11,0-.11-.11Zm4.07-6.88c0,.06-.02.08-.08.08-.03,0-.05,0-.08,0h-3.27c-.06,0-.11,0-.17.01-.15.05-.24.18-.22.35.01.14.13.25.28.27.06,0,.11,0,.17,0h3.28c.07,0,.1.02.1.09,0,.08,0,.15,0,.23.03.29-.19.61-.6.61h-5.76c-.08,0-.16,0-.24-.02-.24-.06-.41-.27-.41-.53,0-.44.01-.88,0-1.33-.01-.37.27-.63.62-.62.97.01,1.93,0,2.9,0s1.84,0,2.76,0c.15,0,.32-.02.46.07.16.1.25.24.27.42.01.11,0,.23,0,.35Zm6.23,3.3c0,.65-.56,1.24-1.2,1.32-.77.09-1.44-.4-1.58-1.16-.02-.1-.01-.19-.01-.28,0-.57,0-1.15,0-1.72,0-.35-.09-.67-.32-.93-.26-.3-.59-.46-.98-.46-.46,0-.91,0-1.37,0-.12,0-.13,0-.12-.13,0-.26,0-.52-.12-.75-.19-.39-.51-.62-.95-.68-.12-.01-.24-.01-.35,0-.07,0-.1-.03-.1-.11,0-.58,0-1.15,0-1.73,0-.08.03-.11.11-.11.6,0,1.19,0,1.79,0,.84,0,1.5-.66,1.5-1.5v-4.85q0-.13.13-.13h2.59c.51,0,.91.33,1,.84,0,.05,0,.11,0,.16v2.29c0,.07-.02.11-.1.14-.39.14-.67.4-.8.79-.1.3-.28.49-.56.63-.39.2-.6.54-.64.98-.03.4-.04.81.08,1.2.29.96.94,1.54,1.92,1.75.07.02.1.04.1.12,0,1.44,0,2.87,0,4.31Zm2.07-6.4c-.17.72-.77,1.26-1.53,1.37-.71.09-1.43-.28-1.78-.91-.18-.33-.25-.67-.22-1.04,0-.09,0-.18,0-.27,0-.26.12-.45.35-.56.37-.18.64-.44.77-.84.05-.17.13-.33.29-.43.35-.23.79-.11.98.29.03.06.05.11.07.18.12.36.37.62.71.78.28.13.41.35.4.65,0,.26.01.53-.05.79Z"></path><path class="cls-1" d="m20.85,15.36c.06-.21.12-.41.18-.62.06-.21.16-.29.39-.29.3,0,.59,0,.89,0,.21,0,.35.14.34.33,0,.14-.1.26-.24.3-.09.02-.19.01-.28.01-.14,0-.29,0-.43,0-.08,0-.11.03-.13.1-.13.48-.27.96-.41,1.44-.06.2-.24.31-.42.25-.13-.04-.19-.14-.22-.26-.12-.46-.25-.92-.38-1.38-.1-.36-.19-.71-.29-1.07,0-.02-.01-.03-.02-.05-.03,0-.03.03-.04.04-.12.25-.24.5-.35.75-.08.17-.2.24-.38.24-.41,0-.83,0-1.24,0-.09,0-.14.03-.17.11-.3.71-.6,1.42-.91,2.13-.08.19-.23.26-.41.2-.11-.04-.18-.11-.21-.22-.11-.38-.23-.75-.34-1.13-.15-.49-.29-.98-.44-1.47,0-.03-.01-.06-.03-.08-.04.02-.05.06-.06.09-.11.18-.21.36-.32.55-.07.13-.18.18-.32.18-.3,0-.6,0-.9,0-.2,0-.33-.13-.33-.31,0-.19.12-.32.32-.33.21,0,.42,0,.63,0,.1,0,.15-.03.2-.12.2-.35.4-.69.6-1.04.11-.18.32-.22.48-.1.07.05.1.12.12.2.16.55.33,1.1.49,1.65.08.27.16.53.24.8,0,.02.02.04.02.06.04,0,.03-.03.04-.05.21-.5.43-.99.64-1.49.09-.21.17-.27.41-.27.41,0,.83,0,1.24,0,.09,0,.14-.03.17-.11.21-.45.42-.89.63-1.34.07-.14.19-.22.33-.21.14.01.25.1.29.26.2.71.39,1.42.58,2.13,0,.03.02.07.03.1,0,0,.01,0,.02,0Z"></path></g></svg> 