<?xml version="1.0" encoding="UTF-8"?> <svg xmlns="http://www.w3.org/2000/svg" id="Capa_1" data-name="Capa 1" viewBox="0 0 40 40"><defs><style> .cls-1 { fill: #fff; } .cls-2 { fill: #ff8100; } </style></defs><circle class="cls-2" cx="20" cy="20" r="17.22"></circle><g><path class="cls-1" d="m12.35,9.78c.86.06,1.63.31,2.41.51,2.01.52,4.01,1.05,6.01,1.59,1.69.45,3.39.91,5.08,1.35,1.25.32,2.5.63,3.75.96.47.12.36.25.14.47-1.06,1.07-2.13,2.13-3.19,3.2-.2.2-.41.22-.63.17-1.62-.43-3.24-.91-4.87-1.31-2.09-.52-4.15-1.11-6.25-1.6-1.56-.36-3.09-.85-4.64-1.25-.34-.09-.36-.16-.27-.49.23-.85.34-1.72.72-2.53.35-.75,1.02-.99,1.74-1.07Z"></path><path class="cls-1" d="m26.6,21.32c-.85-.21-1.71-.4-2.56-.63-2.83-.75-5.66-1.52-8.49-2.26-1.34-.35-2.7-.6-4-1.08-.86-.32-1.41-1.44-1.17-2.31.08-.28.29-.29.5-.24,1.77.47,3.53.97,5.3,1.43,1.58.42,3.18.81,4.76,1.22,1.55.4,3.1.82,4.65,1.21.58.15,1.14.14,1.56-.39.12-.15.27-.28.41-.4.09-.08.17-.26.32-.14.08.06,0,.2-.02.31-.27.93-.54,1.87-.74,2.82-.07.36-.21.46-.53.45Z"></path><path class="cls-1" d="m20.65,20.54c-.33.52-.76.9-1.27,1.04-.42.12-.39.32-.39.61,0,1.39-.04,2.79.02,4.18.05,1.25-.68,1.92-1.82,1.86-1.43-.07-2.86,0-4.29-.03-.42,0-.61.12-.55.56.03.25.02.5,0,.75-.02.48-.39.83-.88.84q-1.23.02-1.23-1.22c0-1.3.02-2.59,0-3.89,0-.46.14-.65.6-.59.19.02.39,0,.58.01.61.03.92.37.93.98q.02,1.2,1.23,1.2c1.08,0,2.17,0,3.25,0,.66,0,.79-.13.79-.77,0-1.35,0-2.71.01-4.06,0-.32-.09-.49-.38-.6-.82-.33-1.13-1.07-1.4-1.83-.04-.12-.09-.31.21-.23.76.21,1.53.38,2.29.57.75.19,1.5.4,2.29.61Z"></path><path class="cls-1" d="m28.23,19.82c.29-1.08.56-2.16.89-3.23.07-.21.35-.35.62-.26.24.08.47.21.39.54-.07.33-.14.66-.22.98-.19.72-.4,1.43-.58,2.15-.09.37-.28.54-.65.47-.36-.06-.44-.32-.45-.66Z"></path></g></svg> 