<?xml version="1.0" encoding="UTF-8"?> <svg xmlns="http://www.w3.org/2000/svg" id="Capa_1" data-name="Capa 1" viewBox="0 0 40 40"><defs><style> .cls-1 { fill: #fff; } .cls-2 { fill: #ff8100; } </style></defs><circle class="cls-2" cx="20" cy="20" r="17.22"></circle><g><path class="cls-1" d="m13.49,9.02h.03s.06.09.09.14c.16.24.32.48.47.73.02.07.06.13.1.18.04.07.08.14.12.21.06.1.12.2.19.31.04.07.02.13-.04.18-.07.06-.15.12-.22.19-.03,0-.04.02-.06.05-.43.29-.83.62-1.19.98-.04.02-.07.06-.1.1-.09.09-.17.18-.26.27-.04.04-.07.08-.11.12-.24.26-.46.54-.66.83-.1.12-.19.26-.27.4-.04.04-.07.09-.1.15-.05.08-.1.16-.15.24-.08.12-.16.25-.21.39-.02.04-.05.09-.07.13,0,0,0,.02,0,.03-.11.2-.21.41-.29.62-.12.23-.2.48-.28.73-.05.14-.11.29-.13.44-.09.23-.14.48-.18.72-.03.15-.05.29-.08.44,0,.02,0,.03,0,.05,0,.02,0,.03-.01.05-.01.1-.04.19-.03.29-.04.16-.03.33-.04.49-.02.09-.01.19,0,.29v.39c0,.13,0,.26,0,.39,0,.13.02.26.02.39-.01.13.02.26.03.39.02.15.03.3.07.44,0,.11.03.22.06.33.05.27.11.55.2.81,0,.1.05.19.08.28.09.29.19.58.32.86.04.11.08.21.14.3.01.03.03.06.04.09h0c.03.08.06.16.11.22.02.06.04.11.08.15.15.29.31.58.51.84.05.1.12.19.19.27.02.03.05.06.07.1.18.26.38.5.6.73.06.08.13.15.2.22.05.06.1.12.16.17.07.08.14.15.23.21.33.32.68.61,1.06.87.05.04.09.08.15.11.07.08.16.12.24.18-.09.2-.24.37-.34.57-.02,0-.02.02-.02.04-.07.11-.14.22-.2.33-.13.2-.26.39-.37.59-.05.08-.1.12-.19.08-.13-.08-.26-.16-.39-.23,0-.02-.01-.02-.03-.02-.12-.09-.24-.18-.36-.27-.02-.03-.04-.06-.08-.07-.02-.02-.05-.04-.07-.06h0c-.08-.06-.16-.13-.24-.2-.07-.07-.14-.13-.22-.19-.06-.05-.11-.1-.17-.15-.21-.21-.43-.42-.64-.62-.05-.06-.11-.12-.16-.17-.06-.07-.13-.14-.19-.21-.07-.08-.13-.15-.2-.23-.04-.06-.07-.12-.13-.16-.09-.11-.17-.22-.26-.33,0-.02-.02-.05-.04-.06-.18-.27-.35-.53-.53-.8-.04-.09-.09-.18-.15-.26-.02-.06-.05-.12-.1-.17-.05-.13-.11-.24-.18-.35-.03-.09-.07-.17-.12-.25,0-.04-.02-.08-.05-.11-.06-.14-.12-.28-.19-.41-.03-.09-.06-.18-.11-.26-.01-.07-.04-.12-.08-.18,0,0,0-.02,0-.03-.01-.03-.01-.07-.04-.09,0-.01,0-.02,0-.03-.1-.31-.2-.62-.3-.93,0-.08-.04-.15-.06-.23,0-.02-.01-.03-.02-.05,0-.02,0-.03,0-.05-.03-.15-.07-.29-.1-.44,0-.11-.02-.21-.05-.31-.02-.16-.05-.33-.07-.49-.01-.16-.01-.32-.04-.47-.02-.13.02-.26-.04-.38v-1.52c.05-.23.05-.46.07-.7.03-.13.05-.26.06-.39.02-.13.05-.26.07-.39.03-.13.06-.26.08-.39.03-.13.07-.26.1-.39.07-.25.15-.5.22-.74.05-.14.1-.28.15-.42.03-.01.02-.03.02-.05.05-.12.1-.24.15-.36.05-.12.11-.24.16-.36.04-.08.07-.15.11-.23.04-.05.06-.1.08-.16.07-.13.14-.26.2-.39.05-.05.08-.12.1-.18.04-.07.08-.14.12-.21.08-.11.15-.22.21-.34.02-.02.03-.05.05-.07.08-.11.17-.22.23-.34.05-.07.1-.14.15-.21.05-.05.1-.11.14-.18.31-.37.62-.74.96-1.08.39-.39.81-.74,1.23-1.09.08-.04.15-.1.21-.16.07-.05.14-.1.21-.15.13-.08.26-.16.38-.26Z"></path><path class="cls-1" d="m26.25,9.02s.02,0,.03,0c.1.08.2.15.31.21.26.2.52.39.79.59.12.11.25.21.37.32.02.03.05.06.08.07.1.1.2.19.31.29.03.02.05.05.08.07.11.12.23.23.34.35.01.01.03.03.04.04.11.13.23.26.34.39.21.27.41.53.62.8.04.06.09.12.13.18.05.07.1.15.15.22l.45.73c.14.27.27.53.41.8.03.11.08.21.14.31,0,.04.02.08.05.1.03.12.08.23.13.34.09.26.18.52.26.77.04.13.08.26.12.39l.1.39c.02.11.05.22.07.33.05.3.1.6.14.9.02.25.04.5.06.75,0,.03-.02.08.03.1v1.19s-.02.02-.02.03c0,.32-.06.64-.08.95-.03.12-.05.24-.05.36l-.16.8c-.05.12-.08.25-.1.39-.08.27-.17.53-.25.8-.04.12-.09.24-.13.36-.11.26-.22.52-.33.77-.06.11-.12.22-.17.34-.01.02-.03.05-.04.07-.06.1-.11.21-.17.31-.17.28-.34.55-.51.83-.03.02-.04.04-.04.07-.08.11-.15.21-.23.32-.29.38-.6.75-.92,1.1-.02.02-.03.04-.05.05-.12.12-.24.24-.36.37-.02.02-.04.04-.06.05-.36.33-.73.64-1.11.95-.08.06-.16.12-.24.18-.06.02-.11.06-.15.11-.14.06-.24.18-.39.2l-.18-.28c-.06-.11-.12-.22-.2-.32,0-.04-.03-.07-.06-.09-.17-.29-.34-.57-.54-.84-.05-.08-.04-.14.05-.18.05-.03.1-.07.15-.11.02-.02.05-.03.07-.05.26-.17.51-.36.74-.57.08-.05.14-.11.21-.18h0s.05-.03.06-.05c.04-.01.07-.05.09-.08.09-.07.17-.14.24-.22.07-.05.13-.11.18-.18.08-.09.16-.17.24-.26.05-.04.09-.09.12-.15.08-.07.15-.15.21-.24.19-.22.37-.45.52-.71.03-.05.07-.1.1-.15.05-.07.1-.14.13-.22.16-.26.32-.53.44-.81.14-.26.26-.53.35-.81.06-.12.1-.25.14-.39h0s0-.02,0-.02c.02-.02.03-.04.02-.06.02-.03.03-.07.03-.11.02,0,.02-.02.02-.04,0-.02.02-.05.02-.07v-.05c.06-.12.09-.24.11-.37.06-.18.09-.36.12-.54.01-.05.02-.1.03-.16.03-.17.05-.34.08-.52,0-.03,0-.07,0-.1.02-.03.02-.06.02-.09,0-.06,0-.11,0-.17.04-.14.03-.28.03-.42.03-.52.01-1.03-.06-1.54.01-.1-.02-.19-.03-.28-.02-.19-.05-.38-.1-.57,0-.09-.02-.18-.06-.26-.05-.28-.13-.56-.23-.83,0-.03-.01-.05-.03-.08,0-.02,0-.04-.02-.06-.02-.1-.05-.2-.1-.29-.09-.27-.21-.53-.34-.79-.11-.25-.24-.49-.39-.72-.25-.43-.53-.84-.85-1.22-.04-.07-.1-.14-.16-.19-.05-.06-.1-.12-.15-.17-.06-.08-.13-.16-.2-.22-.05-.06-.11-.11-.16-.17-.08-.09-.16-.18-.25-.25-.04-.04-.09-.08-.13-.13-.07-.08-.15-.15-.23-.21-.07-.07-.14-.14-.23-.18-.05-.06-.12-.11-.19-.15-.18-.14-.35-.28-.53-.41-.07-.05-.09-.11-.04-.18.15-.23.3-.46.43-.71.06-.09.12-.18.18-.28.04-.05.08-.1.1-.16.09-.14.18-.27.26-.41Z"></path><path class="cls-1" d="m20.88,31.6c-.02.22-.02.44-.05.65-.04.32-.11.4-.42.45-.37.06-.73.06-1.1-.02-.06-.01-.12-.04-.18-.06-.15-.08-.16-.23-.18-.38-.05-.38-.03-.76-.06-1.14.01-.04.01-.09,0-.13v-.03s0-.07,0-.1v-.03s0-.07,0-.1c0-.69,0-1.38,0-2.06,0-1.87,0-3.73,0-5.6,0-.42.01-.83-.02-1.25.01-.1,0-.19,0-.29.02-.23.02-.46-.27-.55-.04-.01-.08-.06-.11-.08-.23-.19-.43-.41-.59-.67-.05-.1-.09-.2-.14-.3,0-.02-.01-.03-.02-.05-.03-.13-.07-.26-.1-.39-.01-.15-.02-.29-.03-.44,0-.1.02-.19.02-.29.03-.15.06-.29.09-.44.02-.01.02-.03.02-.05.05-.11.1-.22.15-.34.25-.42.59-.73,1.02-.95.24-.1.49-.17.74-.21.13,0,.26,0,.39,0,.27.02.52.09.77.18.11.05.21.11.32.16.04.02.08.05.12.07.1.09.21.17.31.26.04.04.07.08.11.12.08.12.16.24.24.36.02.04.05.08.07.12h0s.02.04.03.05h0s.02.04.03.05h0c.08.18.13.36.15.55,0,.13,0,.26,0,.39,0,.16-.01.33-.02.49-.03.09-.06.19-.09.28-.13.28-.29.54-.49.77-.18.17-.37.33-.59.45-.06.03-.08.08-.08.15,0,.19,0,.39,0,.58,0,.64,0,1.29,0,1.93-.01.13-.01.26,0,.39v.39c0,.13-.01.26,0,.39,0,.13,0,.26,0,.39-.01.13-.01.26,0,.39v.39c-.01.13-.01.26,0,.39v.39c-.02.12-.01.24,0,.36,0,.14,0,.28,0,.41-.02.12-.01.24,0,.36,0,.14,0,.28,0,.41-.02.13-.01.26,0,.39,0,.13,0,.26,0,.39-.01.1-.01.21,0,.31v.03s0,.03,0,.05v.39c-.01.13-.01.26,0,.39,0,.42-.01.84-.02,1.27Z"></path><path class="cls-1" d="m11.52,21.42l-.09-.34c-.04-.18-.08-.36-.12-.54,0-.07,0-.14-.03-.21-.01-.16-.01-.31-.05-.46,0-.13,0-.26-.02-.39,0-.13,0-.26-.01-.39,0-.13,0-.26,0-.39,0-.13.01-.26.02-.39,0-.13.02-.26.03-.39.02-.15.05-.29.07-.44.03-.08.05-.17.06-.26.08-.28.16-.57.24-.85.05-.13.09-.26.14-.38.11-.26.22-.52.33-.78.05-.1.11-.21.16-.31.02-.03.04-.06.05-.1.07-.11.14-.22.2-.34.27-.41.58-.79.9-1.17.02,0,.03-.02.03-.04l.35-.37s.02-.02.03-.03c.11-.11.23-.22.34-.33.02,0,.04-.02.05-.04.26-.22.52-.43.8-.62.05-.03.1-.07.16-.1.03-.02.05,0,.08.01l.09.13c.04.07.08.13.13.2.17.26.33.52.5.78.06.1.13.21.19.31,0,.03.02.05.04.07.08.11,0,.17-.07.24-.06.03-.12.07-.16.12-.09.05-.17.11-.24.18-.09.06-.17.13-.24.21-.04.03-.07.06-.11.1-.11.1-.22.2-.31.32-.03.04-.07.07-.1.11-.08.07-.15.16-.21.24-.06.07-.13.13-.18.22-.05.04-.08.09-.11.14-.2.25-.37.52-.51.81-.16.25-.26.53-.36.81-.05.13-.11.27-.13.41-.08.23-.14.48-.16.72-.04.14-.05.29-.07.44,0,.12-.02.24-.03.36,0,.13,0,.26,0,.39,0,.13,0,.26,0,.39.02.13,0,.26.04.39,0,.11.01.21.05.32h0s0,.05,0,.07c.04.26.09.52.18.77.03.15.08.29.15.42.1.29.22.57.39.83.03.08.07.15.13.22l.08.12c.15.26.33.5.53.73.07.09.14.18.23.26.04.07.09.11.15.16.06.08.13.14.21.2.05.06.1.12.18.16.07.08.15.14.24.2.11.09.22.19.34.27.11.08.16.16.07.28-.03.04-.06.08-.07.13-.05.07-.1.14-.13.22-.18.29-.36.58-.54.86-.03.02-.04.04-.05.07,0,0-.01,0-.02.02q-.14.19-.34.09c-.4-.3-.78-.63-1.15-.96-.02-.02-.04-.04-.06-.06-.09-.12-.2-.22-.31-.32-.03-.03-.05-.06-.08-.09-.17-.21-.35-.42-.52-.64l-.06-.09h0c-.05-.07-.09-.13-.14-.2-.02-.05-.05-.09-.08-.13,0-.03-.02-.05-.04-.06,0,0,0,0,0,0-.15-.26-.3-.53-.45-.79-.11-.25-.22-.5-.33-.75-.05-.13-.09-.26-.14-.39l-.11-.37s0-.02-.01-.02Z"></path><path class="cls-1" d="m28.37,17.21c.04.26.09.52.13.78.01.12.02.24.03.36,0,.12.01.24.02.36-.01.12,0,.24,0,.36,0,.13,0,.26,0,.39,0,.15-.02.29-.03.44,0,.04,0,.09,0,.13-.03.11-.04.22-.04.34-.02.06-.03.12-.03.18-.03.16-.07.33-.1.49,0,.02,0,.03,0,.05l-.02.05s0,.03,0,.05c0,.02-.01.03-.02.05-.01.05-.02.1-.04.15-.09.27-.18.53-.27.8l-.16.39c-.12.25-.25.5-.37.74-.04.04-.06.08-.08.13l-.18.29c-.18.24-.35.49-.53.73-.03.04-.06.08-.1.12-.09.08-.16.18-.24.27-.05.06-.1.11-.15.17-.09.07-.16.15-.23.23-.06.06-.13.12-.19.18-.08.06-.16.12-.22.2-.06.04-.12.08-.16.14-.12.08-.22.17-.33.26-.02.02-.04.03-.06.05-.11.08-.22.15-.32.23-.1.07-.16.04-.22-.06-.12-.2-.25-.39-.38-.58-.04-.09-.09-.18-.16-.26-.01-.05-.05-.09-.08-.13-.09-.2-.24-.36-.31-.57.08-.07.16-.14.24-.21.05-.02.09-.05.13-.09.12-.09.24-.18.34-.29.02,0,.04-.01.04-.03.13-.11.26-.23.37-.36.02,0,.04-.02.04-.05.11-.09.2-.2.28-.31.04-.02.06-.05.08-.09.1-.09.17-.21.25-.32.18-.23.33-.47.45-.73.16-.26.28-.54.38-.82.1-.24.19-.49.24-.75.05-.13.08-.27.09-.41.02-.1.04-.2.03-.31.04-.21.03-.41.04-.62,0-.08,0-.16,0-.23,0-.16.01-.33-.01-.49,0-.09,0-.19-.01-.28,0-.13-.01-.26-.05-.39,0-.11-.03-.21-.06-.31-.05-.3-.15-.59-.26-.87-.04-.11-.07-.22-.13-.32-.04-.13-.1-.25-.17-.36,0-.03-.02-.05-.03-.08-.08-.15-.15-.3-.25-.43-.01-.06-.05-.1-.08-.13-.04-.08-.09-.16-.16-.23-.06-.11-.14-.22-.23-.31-.03-.03-.05-.06-.08-.09-.21-.27-.44-.51-.71-.73-.01-.01-.03-.02-.04-.03-.11-.11-.23-.2-.35-.29-.04-.03-.08-.06-.12-.1-.09-.07-.17-.14-.26-.21-.03-.05,0-.09.03-.13.08-.14.15-.28.23-.41.05-.05.08-.11.11-.18.05-.06.09-.13.13-.21h0s.03-.05.05-.08c.06-.08.12-.16.16-.25.03-.04.05-.08.08-.11.07-.1.14-.2.21-.3.05-.02.09.02.12.04.13.09.26.19.39.28.01.01.03.02.04.03.1.09.21.17.31.26.05.04.1.08.15.13.08.07.16.14.24.21.06.06.13.12.19.18l.23.24s.06.07.1.1c.02.02.03.04.05.06h0c.08.09.16.19.25.28.03.04.06.08.1.12.18.26.36.51.54.77.01.05.05.09.08.13.05.1.11.21.17.3.11.24.23.47.34.71.06.15.12.29.18.44.02.08.04.16.08.23,0,.05.02.09.04.13.02.12.06.24.11.36.04.15.07.29.11.44Z"></path><path class="cls-1" d="m17.86,22.19c-.14.23-.28.47-.43.7-.05.08-.11.17-.16.25-.05.07-.11.13-.14.21-.07.09-.14.19-.21.28-.13-.02-.21-.12-.32-.18-.06-.05-.11-.09-.17-.14-.07-.07-.14-.14-.23-.2-.06-.06-.12-.12-.19-.18-.07-.07-.13-.14-.2-.21-.05-.06-.11-.12-.16-.18-.09-.11-.17-.22-.26-.34-.02-.03-.03-.05-.05-.08-.07-.11-.14-.22-.21-.34-.04-.08-.09-.16-.13-.23-.01-.06-.04-.11-.07-.16-.05-.13-.11-.26-.16-.39-.08-.26-.16-.52-.24-.78-.02-.13-.05-.26-.07-.39-.01-.13-.03-.26-.04-.39,0-.13,0-.26-.01-.38,0-.13,0-.26,0-.39.02-.15.03-.29.05-.44.04-.11.05-.22.06-.33.08-.26.15-.52.23-.78.03-.02.03-.06.04-.09h0c.04-.1.08-.2.12-.3l.11-.23s.04-.05.04-.09c.09-.15.19-.31.28-.46.02,0,.03-.02.03-.04.09-.12.17-.23.26-.35,0,0,.01-.02.02-.03.03-.03.06-.07.08-.1,0,0,.01-.02.02-.02.07-.08.14-.15.21-.23.14-.13.29-.26.43-.39.06-.03.12-.07.16-.13.08-.06.17-.11.25-.17.03-.02.06-.06.11-.02.08.1.16.21.23.31.06.09.12.17.18.26,0,.03.02.05.05.07.01.02.03.04.04.06h0c.17.27.34.53.51.8.03.05.02.08-.02.12-.07.07-.14.14-.2.21,0,0-.02.02-.03.03-.13.11-.25.23-.36.36l-.03.03c-.11.1-.21.21-.29.34-.04.05-.08.1-.1.17-.06.06-.08.14-.12.22-.07.14-.14.28-.18.44-.17.42-.2.86-.17,1.31,0,.08.01.16.02.24.03.27.06.53.17.78.02.07.04.14.08.21,0,.02.02.03.02.05h0s.02.03.03.05h0s.02.03.03.05h0s.01.02.02.03h0c.04.1.09.19.16.28,0,.04.04.07.07.1.07.13.17.23.27.34.01.04.04.06.07.09.09.11.19.22.31.3.03.04.06.07.1.08,0,0,0,0,0,.01q.19.14.08.34Z"></path><path class="cls-1" d="m23.12,20.34s.05-.08.05-.13c.05-.1.08-.2.1-.31,0-.04.02-.07.03-.11.06-.37.04-.73.02-1.1.01-.14,0-.27-.04-.4-.05-.26-.14-.51-.27-.74-.03-.09-.08-.17-.13-.25-.2-.33-.44-.63-.73-.88-.1-.09-.19-.19-.29-.27-.04-.03-.05-.07-.02-.11.07-.09.13-.18.18-.28.04-.03.06-.08.08-.12.17-.27.34-.54.52-.81.05-.05.09-.11.12-.17q.16-.18.37-.04s.04.02.05.03c.22.2.45.39.67.59.03.03.05.05.08.08.07.08.14.15.2.23.06.08.12.16.19.23h0s.04.05.05.07c.02.05.05.1.09.13l.21.34s0,.04.03.05c.07.14.14.28.21.41.09.25.18.5.27.75.04.16.08.33.12.49,0,.06,0,.12.03.18.05.42.06.84.05,1.27-.03.11-.03.22-.03.33-.04.21-.08.41-.12.62,0,0,0,.02,0,.03,0,.03-.02.07-.03.1-.02.02-.03.05-.02.08-.1.25-.2.49-.29.74-.14.25-.27.5-.41.74-.06.08-.12.17-.18.25-.06.05-.11.12-.15.18-.09.09-.18.19-.26.28-.03.02-.06.04-.07.07-.1.09-.2.19-.3.28-.04.03-.08.07-.11.1-.09.07-.17.14-.26.21-.02.01-.05.03-.07.04-.09.08-.18.1-.26-.02-.05-.07-.1-.15-.15-.22l-.47-.73c-.08-.12-.15-.24-.23-.36,0,0-.01-.02-.02-.03-.1-.18-.1-.18.07-.32.42-.33.77-.72,1.01-1.21.06-.11.13-.21.16-.33Z"></path></g></svg> 