<svg xmlns="http://www.w3.org/2000/svg" id="Capa_1" data-name="Capa 1" viewBox="0 0 40 40"><defs><style> .cls-1 { fill: #fff; } .cls-2 { fill: #ff8100; } </style></defs><circle class="cls-2" cx="20" cy="20" r="17.22"></circle><g><path class="cls-1" d="m6.01,19.59c.15-.26.35-.44.68-.41.32.03.58.27.58.61.01.7.01,1.4,0,2.1,0,.29-.2.52-.45.59-.28.08-.53,0-.72-.25-.03-.04-.06-.09-.09-.13,0-.84,0-1.67,0-2.51Z"></path><path class="cls-1" d="m18.12,20.84c0-2.94,0-5.88,0-8.82,0-.16,0-.33.06-.48.09-.25.36-.43.61-.42.28.01.54.21.6.47.04.16.05.32.05.49,0,5.84,0,11.68,0,17.53,0,.15-.01.31-.04.46-.06.28-.32.49-.61.5-.27.01-.53-.18-.62-.45-.05-.15-.05-.3-.05-.46,0-2.94,0-5.88,0-8.82Z"></path><path class="cls-1" d="m21.86,20.87c0,2.42,0,4.84,0,7.26,0,.16,0,.31-.06.46-.11.28-.36.44-.66.42-.29-.02-.51-.22-.56-.51-.03-.16-.04-.33-.04-.49,0-4.78,0-9.56,0-14.34,0-.16.01-.33.04-.49.05-.29.28-.48.56-.51.3-.03.56.13.66.42.06.15.06.3.06.46,0,2.44,0,4.88,0,7.32Z"></path><path class="cls-1" d="m17,20.83c0,1.54,0,3.08,0,4.61,0,.44-.17.69-.51.77-.35.08-.7-.12-.77-.47-.03-.17-.04-.34-.04-.52,0-2.93,0-5.86,0-8.79,0-.15.01-.31.04-.46.05-.3.31-.53.6-.54.29-.01.56.18.65.48.04.13.04.27.04.41,0,1.5,0,3,0,4.5Z"></path><path class="cls-1" d="m22.98,20.84c0-1.38,0-2.76,0-4.15,0-.09,0-.18,0-.27.03-.38.29-.65.63-.67.34-.02.61.24.66.63.02.14.03.29.03.43,0,2.68,0,5.36,0,8.05,0,.18-.01.36-.04.54-.05.29-.31.5-.59.52-.28.02-.55-.18-.64-.46-.05-.14-.05-.29-.05-.43,0-1.4,0-2.8,0-4.2Z"></path><path class="cls-1" d="m14.59,20.85c0,.86,0,1.73,0,2.59,0,.15-.01.31-.04.46-.06.3-.29.49-.59.5-.31.01-.55-.15-.64-.45-.03-.11-.05-.23-.05-.35,0-1.85,0-3.69,0-5.54,0-.51.24-.8.66-.8.32,0,.56.19.63.5.05.22.04.43.04.65,0,.81,0,1.62,0,2.43Z"></path><path class="cls-1" d="m26.72,20.87c0,.82,0,1.64,0,2.46,0,.54-.4.85-.85.7-.22-.07-.38-.22-.42-.46-.03-.15-.04-.31-.04-.46,0-1.51,0-3.02,0-4.53,0-.14.01-.29.04-.43.06-.3.31-.51.61-.53.29-.01.56.2.63.5.03.12.04.25.04.38,0,.79,0,1.58,0,2.37h0Z"></path><path class="cls-1" d="m12.14,20.84c0,.61,0,1.22,0,1.83,0,.36-.18.62-.46.69-.42.12-.82-.15-.82-.59-.01-1.28-.01-2.56,0-3.84,0-.37.27-.62.63-.62.37,0,.64.25.66.65.02.55,0,1.11,0,1.66,0,.07,0,.15,0,.22Z"></path><path class="cls-1" d="m29.13,20.84c0,.56,0,1.13,0,1.69,0,.45-.25.72-.63.73-.39,0-.65-.27-.66-.71,0-1.14,0-2.27,0-3.41,0-.44.27-.72.65-.71.39,0,.63.28.64.73,0,.56,0,1.13,0,1.69Z"></path><path class="cls-1" d="m9.73,20.77c0,.35,0,.61,0,.87,0,.14-.02.27-.05.4-.07.27-.32.46-.61.46-.29,0-.53-.17-.61-.45-.03-.1-.05-.21-.05-.32,0-.6,0-1.2,0-1.8,0-.11.02-.22.05-.32.09-.29.34-.46.64-.45.28.01.52.2.59.48.1.39.02.8.05,1.11Z"></path><path class="cls-1" d="m31.58,20.85c0,.33.01.66,0,.98-.02.35-.21.59-.48.66-.28.07-.56-.03-.71-.27-.04-.06-.08-.13-.08-.2-.08-.78-.09-1.56,0-2.34.05-.39.46-.6.83-.47.26.09.42.34.44.69,0,.02,0,.04,0,.05,0,.3,0,.6,0,.9,0,0,0,0,0,0Z"></path><path class="cls-1" d="m33.99,20.86c0,.33,0,.65,0,.98,0,.4-.27.67-.64.67-.37,0-.64-.26-.65-.66-.01-.67-.01-1.34,0-2.02,0-.39.28-.66.65-.65.37,0,.62.27.63.67,0,.02,0,.04,0,.05,0,.32,0,.64,0,.95Z"></path></g></svg>
