<?xml version="1.0" encoding="UTF-8"?> <svg xmlns="http://www.w3.org/2000/svg" id="Capa_1" data-name="Capa 1" viewBox="0 0 40 40"><defs><style> .cls-1 { fill: #fff; } .cls-2 { fill: #ff8100; } </style></defs><circle class="cls-2" cx="20" cy="20" r="17.22"></circle><g><path class="cls-1" d="m27.01,30.16h-15.62c0-.75,0-1.5,0-2.25q0-.34.33-.36h4.36c-.13-.21-.25-.4-.37-.58-.07-.17-.17-.32-.27-.47-.03-.05-.06-.1-.09-.15-.09-.19-.19-.37-.31-.54-.09-.14-.17-.29-.26-.43-.02-.08-.07-.16-.13-.22-.22-.42-.47-.83-.73-1.24-.22-.39-.44-.79-.69-1.16-.08-.17-.18-.34-.29-.5,0-.06-.04-.11-.08-.15-.24-.41-.49-.82-.73-1.23-.21-.4-.44-.79-.68-1.17-.1-.19-.2-.38-.33-.56,0-.02-.02-.04-.02-.06-.14-.24-.28-.48-.43-.71-.02-.04-.03-.09-.05-.13,0-.01.02-.02.03-.04.13.09.24.22.39.29.04.02.07.05.11.07.14.12.3.19.47.25.21.11.43.21.67.24.1.06.22.07.33.08.16.05.32.05.49.06.15.03.3.02.45,0,.16-.01.33-.01.49-.07.04,0,.08,0,.12,0,.21-.05.42-.08.61-.19.09,0,.17-.05.24-.09.02-.01.04-.02.05-.03h.02s.01,0,.01,0c.02-.01.04-.02.05-.03.09,0,.16-.06.23-.12.09-.04.19-.09.26-.17.13-.08.25-.16.35-.28.12-.1.23-.2.31-.33.05-.03.06-.1.12-.11.15.24.29.48.43.72.12.2.24.4.36.6h0c.12.25.25.47.4.69.05.09.1.18.15.27l.17.28c.24.4.47.81.71,1.21.25.43.51.86.76,1.29.05.12.12.23.2.34.04.07.08.14.11.21.12.2.23.4.35.6.06.1.13.21.19.31.06.1.11.2.17.29.24.41.48.82.72,1.22.08.17.18.33.28.49.03.08.08.15.13.21.07.19.19.35.29.52.07.13.13.28.24.39h0s.02.05.04.07c0,.01,0,.02,0,.03,0,.03,0,.04.03.03.18,0,.35,0,.53,0h4.27c.05.01.03.06.04.09v2.44s0,.05,0,.08Z"></path><path class="cls-1" d="m25.75,9.35s.03,0,.04,0c.19.12.38.23.57.35.37.23.73.47,1.12.67.13.08.26.16.39.24.07.05.13.11.21.13.24.15.48.29.72.44.01.04.05.04.08.04.17.13.35.23.53.33.29.18.57.36.86.53.1.06.11.11.06.2-.28.44-.56.87-.81,1.33-.04,0-.08,0-.12,0-.03-.02-.05-.04-.08-.05-.18-.1-.35-.21-.53-.31-.38-.26-.78-.49-1.18-.72-.09-.07-.17-.14-.28-.17-.12-.08-.25-.15-.37-.23-.17-.1-.33-.2-.5-.3q-.32-.23-.56.08s-.06.07-.09.11c-.43.53-.86,1.07-1.28,1.6,0,.01-.01.02-.02.03-.21.16-.1.38-.12.58v.61c0,.07,0,.15,0,.22,0,.14-.04.3.12.39.5.66,1.02,1.29,1.55,1.92.03.08.06.14.17.07.25-.17.52-.33.77-.49.17-.08.32-.17.47-.28.05-.03.09-.06.14-.08.4-.23.8-.47,1.18-.72.2-.1.39-.22.57-.34.02-.01.05-.03.07-.04.03,0,.05,0,.08.01.24.39.48.79.71,1.18.02.03.03.06.05.09.1.12.1.2-.06.28-.28.15-.55.34-.82.51-.19.1-.37.2-.54.33-.03,0-.06,0-.08.04-.45.26-.89.52-1.32.81-.39.2-.75.45-1.12.68-.16.1-.33.2-.49.31-.04.01-.08.03-.11.04l-.12-.13c-.06-.14-.18-.25-.28-.36-.25-.29-.47-.61-.75-.88-.14-.13-.24-.34-.37-.51-.1-.13-.18-.26-.31-.37-.05-.09-.11-.17-.19-.24-.09-.21-.28-.09-.42-.11h-1.83c-.19,0-.38,0-.56,0,0-.16,0-.32,0-.48v-4.27c0-.15,0-.3,0-.44h.56c.2,0,.41,0,.61,0h1.22c.17,0,.36.08.45-.16.07-.05.12-.12.16-.2.11-.14.22-.27.34-.41.11-.1.19-.22.28-.34.07-.09.17-.16.21-.27.36-.39.67-.82,1-1.22Z"></path><path class="cls-1" d="m10.61,18.25s-.09-.06-.02-.11h0s.03.05.05.08c0,.01-.02.02-.03.04Z"></path><path class="cls-1" d="m10.58,18.14s-.01.02-.02.03c0,0-.01-.01-.02-.02.01,0,.02,0,.03-.01,0,0,0,0,0,0Z"></path><path class="cls-1" d="m13.54,18c-.2,0-.41,0-.61.01-.2-.03-.41-.06-.61-.08-.12-.04-.24-.07-.36-.11-.08-.03-.17-.06-.25-.1-.18-.1-.37-.2-.55-.3-.09-.07-.18-.13-.26-.2-.11-.11-.23-.22-.34-.33-.07-.08-.14-.16-.21-.25-.26-.37-.47-.77-.6-1.21-.04-.2-.08-.41-.11-.61,0-.2,0-.41,0-.61.04-.2.07-.41.11-.61.06-.12.1-.25.13-.38.04-.08.08-.15.11-.23.11-.18.22-.37.34-.55.07-.09.14-.17.22-.26.13-.12.26-.25.39-.37.08-.04.16-.09.21-.16.19-.1.37-.2.56-.3.12-.05.25-.1.37-.15.08-.02.16-.04.24-.06.2-.03.41-.06.61-.08.2,0,.41,0,.61,0,.41.07.8.2,1.17.37.65.37,1.16.87,1.51,1.54.03.08.06.16.09.24.18.39.22.81.27,1.23,0,.04,0,.08,0,.12-.04.51-.13,1-.36,1.46-.34.69-.86,1.2-1.52,1.58-.19.08-.38.16-.57.24h0c-.2.04-.4.09-.6.13Zm.08-1.81c.08,0,.15-.02.21-.08.15-.05.28-.13.38-.25.16-.1.27-.24.36-.41.22-.35.33-.73.24-1.15,0-.03,0-.05,0-.08-.04-.26-.14-.5-.32-.7-.06-.12-.15-.22-.27-.28-.37-.33-.79-.46-1.28-.39-.16-.02-.31.05-.45.1-.09.03-.18.07-.25.14-.23.09-.39.28-.53.47-.02.03-.04.07-.06.1-.12.16-.18.34-.21.53-.07.29-.08.57.04.85.1.45.37.76.76.98.03.05.08.06.13.08.18.1.36.17.57.16.24.04.46.03.69-.07Z"></path><path class="cls-1" d="m19.64,12.8c.07,0,.14.02.2,0,.17-.03.23.03.21.2v3.05c.03.2-.06.27-.25.24-.05,0-.11,0-.16,0h-1.83c-.15,0-.3-.01-.44,0-.08,0-.09-.02-.08-.09.12-.24.21-.49.24-.76.07-.2.09-.4.09-.61.02-.2.03-.41,0-.61,0-.49-.16-.95-.33-1.42h2.37Z"></path><path class="cls-1" d="m13.58,15.38s-.06.04-.09.06c-.18.05-.37.07-.56.05-.09-.03-.19-.06-.28-.1-.08-.06-.16-.13-.25-.19-.11-.12-.17-.28-.24-.43,0-.15,0-.3,0-.45.07-.15.12-.3.24-.43.11-.08.22-.16.33-.24.06-.02.13-.03.19-.05.35-.03.66.03.9.31.39.47.28,1.11-.25,1.46Z"></path></g></svg> 