<?xml version="1.0" encoding="UTF-8"?> <svg xmlns="http://www.w3.org/2000/svg" id="Capa_1" data-name="Capa 1" viewBox="0 0 40 40"><defs><style> .cls-1 { fill: #fff; } .cls-2 { fill: #ff8100; } </style></defs><circle class="cls-2" cx="20" cy="20" r="17.22"></circle><g><path class="cls-1" d="m27.63,9.82c.1-.1.22-.18.34-.26.21-.09.42-.14.65-.13.02,0,.05,0,.07,0,.13.03.26.07.38.12.03.01.05.03.08.04.11.08.22.17.31.27.02.02.03.05.05.07.23.34.29.71.17,1.11-.04.09-.09.18-.13.26-.04.05-.08.11-.12.16-.1.08-.19.16-.29.24-.05.02-.09.05-.14.07-.03,0-.05,0-.07.03-.09,0-.12.05-.12.14,0,.29,0,.58,0,.87,0,1.37,0,2.74,0,4.1,0,.06,0,.11,0,.17-.04.28-.09.55-.23.8-.14.22-.33.39-.56.5-.15.05-.3.09-.46.12-.6,0-1.19,0-1.79,0-.04,0-.09,0-.11.05-.04.09-.11.15-.17.23-.23.2-.5.28-.8.26h-.07s-.03-.02-.05-.02h-.05s-.03-.02-.05-.03c-.02-.02-.04-.03-.07-.03-.01,0-.03-.02-.04-.02-.09-.07-.18-.14-.27-.21-.04-.06-.08-.11-.12-.17-.02-.06-.05-.11-.07-.17,0-.03-.01-.07-.02-.1,0-.02,0-.03,0-.05,0-.18,0-.36.05-.53.02-.04.04-.08.05-.12.05-.06.09-.13.14-.19.07-.06.15-.12.22-.19.03-.02.06-.03.1-.05.08-.03.17-.05.25-.08.3-.04.57.04.81.22.06.07.12.14.18.21.03.07.07.13.09.2.02.11.08.14.19.13.48-.01.97,0,1.45,0,.04,0,.08,0,.12,0,.03,0,.07,0,.1-.02.02,0,.03,0,.05,0,.17-.03.3-.12.37-.28.08-.11.1-.24.11-.37,0-.02,0-.05,0-.07.02-.05.02-.1.01-.15,0-.05,0-.1,0-.15v-.36c.01-.12.01-.24,0-.36v-.36c.01-.12.01-.24,0-.36v-.36c.01-.12.01-.24,0-.36v-.36c.01-.12.01-.24,0-.36v-.36c.01-.12.01-.24,0-.36v-.36c.01-.12.01-.24,0-.36v-.36c.01-.08.01-.16,0-.24.01-.04-.01-.05-.04-.06-.07-.03-.14-.06-.21-.09-.08-.06-.15-.11-.23-.17-.05-.06-.1-.11-.15-.17-.07-.12-.13-.24-.18-.36l-.03-.12s0-.03,0-.05c-.04-.32.03-.62.2-.89.04-.05.08-.1.12-.15Zm.77.32c-.15.02-.26.09-.34.21-.17.22-.15.51.05.7,0,.02.03.04.05.05.23.19.54.17.74-.04.2-.21.2-.52,0-.77-.12-.12-.27-.18-.45-.16-.02,0-.03,0-.05,0Z"></path><path class="cls-1" d="m9.74,10.31c.06-.06.12-.12.18-.18.3-.23.63-.33,1.01-.28h.07c.3.09.56.24.76.48h0c.11.14.19.3.25.47,0,.02,0,.03.01.05v.05s.02.05.02.07c0,.16,0,.32-.02.48,0,.02,0,.03-.01.05-.01.04-.03.08-.04.12,0,.06-.12.12-.03.19.15.11.31.21.46.32.01,0,.03.02.04.03.09.08.2.15.31.22.06.06.13.11.2.14.05.05.11.1.18.13.25.19.51.37.77.55.01,0,.03.02.04.03l.32.23c.06.04.12.08.18.13.05.03.1.07.15.1.12.09.24.18.37.26,0,.02.02.03.04.03.1.08.2.16.32.22.07.06.14.1.22.14.04.04.08.06.13.08.12.08.25.15.4.16.04,0,.08,0,.12,0,.2.03.4.02.6.02.12,0,.24.01.36,0,.13,0,.26.01.39,0,.03-.08.06-.16.1-.24.16-.28.41-.46.73-.52.03,0,.06,0,.09,0,.19,0,.36.05.53.13,0,.02.03.02.04.03.1.07.19.16.27.25.02.03.05.07.07.1.06.13.1.26.12.4,0,.05,0,.09,0,.14,0,.03,0,.07-.01.1,0,.02,0,.03,0,.05-.2.53-.5.75-1.06.75h-.07c-.06-.03-.13-.05-.19-.07-.09-.05-.18-.11-.27-.16-.08-.09-.17-.17-.23-.28,0-.02-.03-.03-.05-.03-.17,0-.35,0-.52,0h-.12c-.06,0-.11-.02-.17,0-.04,0-.08,0-.12,0-.32-.02-.65.02-.96-.1-.21-.08-.4-.2-.59-.3-.1-.06-.2-.13-.3-.19-.05-.05-.11-.09-.17-.12-.25-.19-.5-.37-.77-.53-.02-.02-.05-.03-.07-.05-.08-.07-.18-.14-.27-.19-.22-.17-.44-.33-.68-.48-.04-.03-.07-.05-.11-.08l-.24-.17c-.25-.19-.51-.37-.77-.55-.07-.05-.15-.1-.21-.16-.08-.07-.14-.07-.21,0-.1.04-.21.07-.31.11-.39.07-.75,0-1.07-.23h0s-.04-.03-.06-.05c0,0-.01,0-.02-.01-.21-.21-.35-.46-.41-.75,0-.03,0-.06-.01-.09-.01-.24.03-.48.13-.7.02,0,.02-.03.02-.05.05-.07.1-.14.15-.22Zm1.12.17s-.03,0-.05,0c-.22-.04-.4.02-.55.18-.14.13-.2.29-.18.47,0,.25.12.43.34.54.05.04.1.06.16.06.02,0,.03,0,.05,0,.14.03.27,0,.39-.08.11-.05.19-.13.24-.24.08-.13.12-.26.08-.41,0-.02,0-.03,0-.05,0-.02-.01-.03-.02-.05,0-.03,0-.05-.03-.07-.01-.05-.04-.09-.08-.12,0,0-.01-.02-.02-.02-.08-.12-.2-.18-.34-.21Z"></path><path class="cls-1" d="m9.8,17.2s.1-.09.15-.14c.11-.07.22-.14.34-.19.37-.13.73-.11,1.08.06.12.07.23.16.34.26,0,0,.02.02.02.02.05.07.11.15.16.22.04.08.08.17.11.25.02.06.05.08.12.08.53,0,1.07-.01,1.6,0,.2,0,.33-.03.38-.23,0,0,0,0,0-.01,0,0,.01-.02.02-.03.02-.02.04-.05.06-.07.02-.02.04-.04.06-.06.24-.2.5-.29.81-.25.24.05.44.17.61.35.03.05.07.1.1.15.03.07.06.14.09.22.03.14.04.29.02.43-.03.1-.07.19-.1.29-.02.04-.07.06-.07.12-.1.11-.21.21-.34.29-.01,0-.03.01-.04.02l-.19.07s-.03,0-.05.01c-.02,0-.03,0-.05,0-.16,0-.31,0-.46-.05-.03-.02-.06-.03-.1-.05-.06-.04-.13-.09-.19-.13-.06-.07-.12-.14-.18-.21-.01-.03-.03-.05-.04-.08-.03-.11-.1-.13-.21-.13-.53,0-1.07,0-1.6,0q-.2,0-.26.2c-.06.1-.12.2-.17.3-.03.04-.06.07-.09.11-.08.06-.16.13-.24.19-.26.14-.53.19-.82.18-.02,0-.03,0-.05,0-.02,0-.03,0-.05-.01-.06-.01-.11-.02-.17-.04-.11-.05-.21-.1-.32-.15-.04-.03-.08-.06-.12-.09-.06-.06-.11-.11-.17-.17-.06-.09-.12-.18-.18-.28-.02-.05-.05-.11-.07-.16,0-.01,0-.03-.01-.04-.09-.33-.06-.65.08-.95.07-.1.14-.2.21-.3Zm1.6.97c.02-.06.02-.12,0-.17,0-.02,0-.03,0-.05-.06-.28-.24-.44-.51-.49-.25-.05-.47.04-.62.25-.06.05-.09.12-.1.19-.11.34.08.72.42.81.36.1.73-.12.81-.5v-.05Z"></path><path class="cls-1" d="m9.78,27.34c.07-.06.14-.11.22-.17.1-.04.19-.09.29-.13.04-.02.13.01.1-.09,0-.12,0-.24,0-.36,0-.12,0-.24,0-.36,0-.12,0-.24,0-.36,0-.12,0-.24,0-.36v-.36c0-.12,0-.24,0-.36,0-.06,0-.13,0-.19.02-.23.04-.45.09-.68,0-.01,0-.03.01-.04.05-.15.11-.29.2-.42.28-.42.69-.6,1.17-.62.35-.01.7,0,1.06,0,.04,0,.08,0,.12,0,.17,0,.34,0,.51,0,.02,0,.03,0,.05,0,.19.02.4.06.46-.21,0,0,0,0,0-.01.05-.06.11-.12.16-.18.02-.02.04-.03.06-.05h0c.24-.17.5-.22.78-.17.23.06.42.19.57.37.15.23.23.48.18.75-.02.11-.07.21-.11.31,0,.01-.02.03-.03.04-.09.12-.19.22-.31.31-.09.04-.18.08-.27.12-.02,0-.03,0-.05.01-.14.03-.29.02-.43,0-.02,0-.03,0-.05-.01-.04-.01-.08-.03-.12-.04-.04-.02-.08-.04-.12-.06-.02-.02-.05-.03-.07-.05h0s-.04-.03-.06-.04c-.07-.08-.14-.16-.21-.24-.04-.16-.14-.22-.29-.19-.02,0-.03,0-.05,0-.04,0-.08-.01-.12,0-.55-.03-1.1-.02-1.65-.01-.12,0-.25.02-.36.08-.05.01-.09.03-.12.07-.03.01-.05.03-.07.06-.04.03-.08.07-.1.12,0,.01-.02.02-.03.04-.14.26-.16.55-.16.84,0,.71,0,1.42,0,2.13,0,.14.01.25.17.27.05,0,.09.04.14.06h0s.01,0,.01,0c.03.02.05.03.08.05,0,0,.02.01.02.02.03.03.06.05.09.08h0c.05.05.1.11.15.16.05.08.09.15.14.23.06.15.1.31.12.47v.19c-.03.16-.06.31-.12.46-.05.08-.1.16-.14.24,0,.01-.02.03-.03.04-.09.09-.19.17-.28.26-.02.01-.04.03-.06.04h0c-.25.15-.52.21-.81.19-.09-.02-.18-.04-.27-.05-.45-.17-.75-.48-.89-.94,0-.02,0-.03,0-.05,0-.03-.01-.07-.02-.1,0-.02,0-.05,0-.07,0-.12.02-.24.02-.36,0-.01,0-.03,0-.04,0-.02,0-.03.01-.05.03-.07.06-.14.08-.21.04-.07.08-.13.11-.2.06-.06.11-.13.17-.19Zm.38.6h0c-.14.18-.16.38-.07.59.02.1.08.17.15.23.01.03.04.05.07.05h0c.08.07.17.1.27.12h.07c.29.03.58-.16.66-.43.09-.3-.05-.62-.31-.76-.01-.02-.03-.02-.05-.02-.25-.12-.51-.07-.7.13,0,0-.02.02-.02.02-.03.02-.05.04-.05.07Z"></path><path class="cls-1" d="m30.59,21.04c-.02.06-.05.13-.07.19-.06.09-.11.18-.17.27-.07.07-.14.15-.22.22-.06.04-.11.08-.17.12-.05.02-.1.05-.15.07-.03,0-.05,0-.07.03-.05.01-.1.03-.15.04-.02,0-.05,0-.07.01-.14.02-.29.01-.43,0-.02,0-.03,0-.05,0-.02,0-.03,0-.05-.01-.01,0-.03,0-.04-.01-.09-.04-.17-.07-.26-.11h0s-.04-.02-.06-.03c-.08-.06-.16-.13-.24-.19-.05-.05-.09-.11-.14-.16-.03-.05-.06-.1-.09-.15-.03-.07-.06-.15-.09-.22-.02-.05-.03-.07-.09-.07-.75,0-1.51,0-2.26,0-.04,0-.06,0-.08.05-.11.27-.31.44-.57.55l-.14.03s-.05,0-.07.01c-.02,0-.03,0-.05,0-.19,0-.36-.05-.53-.12-.08-.07-.16-.13-.24-.2h0s-.04-.04-.06-.07c-.03-.05-.06-.1-.09-.15-.05-.11-.07-.22-.1-.33,0-.03,0-.06,0-.1,0,0,0-.02,0-.02.01-.08.02-.16.03-.24.05-.12.1-.24.18-.35.01-.02.03-.04.04-.06.23-.23.51-.35.84-.32.02,0,.05,0,.07.01.11.03.22.07.32.12.06.05.13.1.19.15.06.09.13.18.19.27,0,0,0,.01,0,.02,0,.08.06.09.13.09.65,0,1.3,0,1.95,0,.1,0,.21.03.3,0,.09-.04.08-.18.13-.27.14-.24.33-.42.57-.56.36-.17.72-.18,1.1-.05.1.06.19.11.29.17.04.03.08.07.12.1.18.19.31.41.37.67.03.14.02.28.02.42-.01.07-.03.14-.04.21Zm-1.1.27c.1,0,.18-.05.25-.12.21-.16.3-.43.23-.68-.07-.25-.29-.42-.55-.45-.05-.01-.1-.01-.15,0-.31.03-.53.25-.57.56-.05.44.38.82.79.7Z"></path><path class="cls-1" d="m13.54,30.47c-.09-.05-.18-.1-.27-.15-.01-.01-.03-.02-.04-.03h0c-.06-.05-.12-.11-.18-.16-.05-.07-.11-.15-.16-.22-.17-.32-.22-.66-.13-1.01,0-.01,0-.03.01-.04l.09-.22c.05-.07.1-.14.14-.22l.22-.21h0s.03-.02.04-.03c.05-.03.1-.06.14-.09.09-.06.21-.06.29-.13v-.29c.01-.19.01-.37.04-.55,0-.02,0-.03.01-.05,0-.02,0-.03.01-.05,0-.01,0-.03.01-.04.09-.25.24-.45.47-.59.13-.06.27-.1.42-.13h0s.04,0,.06-.01c.2,0,.4-.01.6-.02.12.01.24.01.36,0h.36c.12.01.24.01.36,0h.36c.12.01.24.01.36,0h.43c.08-.02.07-.1.11-.15.05-.06.11-.12.16-.19.02-.02.04-.04.07-.05.08-.04.16-.08.24-.13.13-.04.26-.07.4-.05.38.03.65.23.82.57,0,.02.02.05.03.07.01.07.03.13.04.2,0,.03,0,.06,0,.09,0,.12-.02.24-.06.36-.09.22-.23.39-.43.53-.37.19-.73.18-1.08-.05-.04-.03-.07-.06-.11-.1-.09-.11-.18-.23-.22-.37-.02-.05-.05-.06-.1-.06-.86,0-1.72,0-2.58,0-.12,0-.24,0-.34.08-.13.07-.16.19-.17.32-.04.16-.03.32,0,.48,0,.09-.05.22.12.22.07.03.13.07.2.1.09.07.18.14.26.21.04.05.08.09.12.14.06.1.11.2.17.3.02.08.05.16.07.24,0,.02,0,.03,0,.05.04.28-.01.54-.13.79-.13.23-.31.41-.52.55-.12.06-.24.11-.37.14-.01,0-.03,0-.04,0-.25.04-.49,0-.72-.07Zm1.12-1.08c.06-.3-.08-.58-.37-.7-.28-.12-.61-.03-.78.22-.04.03-.06.07-.07.12-.14.37.03.75.4.87.35.11.71-.09.81-.45,0-.01,0-.03,0-.04Z"></path><path class="cls-1" d="m23.65,30.26s-.06-.06-.09-.08c-.07-.1-.15-.19-.22-.29,0-.03-.02-.06-.04-.08-.06-.15-.1-.3-.12-.45,0-.08,0-.16,0-.24.02-.14.06-.28.11-.41,0-.02.02-.04.03-.06.05-.07.1-.15.14-.22.07-.07.14-.14.21-.21.13-.08.25-.17.4-.21.04-.01.06-.03.06-.08.02-.18.03-.37,0-.55,0-.02,0-.05,0-.07,0-.09-.03-.18-.09-.25,0-.02-.02-.04-.04-.04-.06-.06-.14-.09-.22-.09-.02,0-.05,0-.07,0-.02,0-.03-.01-.05-.01-.51,0-1.02,0-1.53,0-.04,0-.06.01-.08.05-.04.13-.12.24-.2.34-.1.1-.22.18-.35.25-.38.13-.72.06-1.03-.19-.03-.03-.06-.07-.1-.1h0s-.04-.05-.05-.07l-.1-.19c-.04-.13-.07-.27-.07-.41,0-.02,0-.03,0-.05,0-.03.01-.06.02-.1.01-.05.02-.09.04-.14.07-.14.15-.28.27-.39.32-.28.68-.32,1.07-.17h0s0,0,0,0c.04.03.08.05.13.08,0,0,.02.01.03.02.06.06.13.13.19.19,0,0,.01.02.02.02.01.02.02.03.03.05.02.05.03.09.07.12,0,0,.02,0,.02,0,.06,0,.11,0,.17,0h.36c.12.01.24.01.36,0h.36c.06,0,.13,0,.19,0,.32.01.62.06.89.24,0,0,.02.01.03.02.27.24.37.55.39.9,0,.17,0,.34,0,.52,0,.05,0,.08.06.1.23.05.41.19.58.35.01.01.03.03.04.04.13.16.22.34.28.53.05.31.03.6-.1.89-.13.24-.31.44-.55.58-.11.04-.23.09-.34.13-.06,0-.11.02-.17.03-.07,0-.14,0-.21,0-.28-.03-.53-.13-.75-.3Zm.8-1.65c-.16.01-.29.08-.4.2-.23.23-.25.6-.04.85.02.04.05.08.1.1.21.17.43.19.67.07.12-.05.22-.14.27-.26.12-.2.13-.4.02-.61,0-.02,0-.04-.03-.05,0-.03-.02-.05-.05-.07-.01-.05-.05-.07-.09-.09-.1-.09-.21-.13-.35-.14h-.05s-.02,0-.02,0c-.02,0-.03,0-.05,0Z"></path><path class="cls-1" d="m30.19,28.4s0,.05,0,.07c-.04.17-.09.33-.17.48-.02,0-.02.02-.02.04-.02.02-.04.05-.05.07h0c-.06.06-.11.13-.17.19h0s-.03.02-.04.03c-.08.05-.15.11-.23.16-.01,0-.03.01-.04.02-.02.01-.05.02-.07.03-.02,0-.03.01-.05.02-.06.02-.11.04-.17.05-.14.03-.29.03-.43.03-.02,0-.05,0-.07,0-.02,0-.05,0-.07-.01-.01,0-.03,0-.04-.01-.11-.05-.23-.09-.34-.14-.06-.04-.11-.08-.17-.12-.08-.09-.16-.18-.24-.26-.04-.07-.08-.13-.12-.2-.03-.1-.06-.19-.09-.29,0-.04,0-.07-.01-.11-.01-.14,0-.28.01-.42.07-.28.21-.52.41-.72.02-.02.04-.04.06-.05.06-.04.11-.08.17-.12.07-.03.13-.06.2-.08.08-.02.09-.06.09-.13,0-.36,0-.72,0-1.08,0-.51.03-1.01-.02-1.52-.03-.25-.08-.49-.29-.66-.04-.05-.09-.08-.15-.09-.08-.05-.16-.07-.25-.07-.33-.03-.67-.02-1,0-.06-.01-.13,0-.19,0-.25,0-.5.02-.75,0-.16-.01-.25.04-.3.19v.02s-.05.05-.07.07c0,0-.01.01-.02.02-.09.09-.2.18-.31.24-.02,0-.04,0-.05.02-.14.04-.28.08-.43.08-.03,0-.06,0-.09,0-.02,0-.05,0-.07-.01-.01,0-.03,0-.04-.01-.09-.04-.18-.08-.27-.12-.05-.04-.1-.07-.14-.11-.06-.08-.13-.16-.19-.24-.04-.1-.08-.2-.11-.31-.05-.37.08-.67.34-.92.06-.04.11-.07.17-.11.06-.02.12-.05.18-.07.01,0,.03,0,.04-.01.03,0,.05,0,.07-.02.02,0,.05,0,.07,0,.33-.02.61.1.84.35,0,.03.03.05.05.07q.12.24.34.21h.05s.02,0,.02,0c.02,0,.05,0,.07,0,.43,0,.86,0,1.28,0,.4,0,.79,0,1.15.21.09.07.18.14.26.21.04.05.08.1.12.15.13.2.21.42.27.65.02.15.04.3.06.46,0,.1,0,.19,0,.29v.36c0,.12,0,.24,0,.36s0,.24,0,.36v.72c0,.12,0,.24,0,.36-.01.04,0,.06.04.08.07.02.14.05.21.07.17.09.32.21.45.35.02.03.04.05.06.08,0,0,.01.02.02.03l.08.12h0c.1.23.17.47.15.72Zm-1.86.23h0c.04.07.09.14.16.18.05.06.12.09.2.1.15.06.29.05.44-.02.04,0,.08-.03.11-.06.18-.12.27-.29.28-.5,0-.26-.1-.46-.33-.58-.24-.13-.48-.12-.7.05-.2.15-.29.36-.24.61,0,.02,0,.03,0,.05,0,.07.03.13.07.18Z"></path><path class="cls-1" d="m15.74,10.67c.11-.08.22-.17.34-.23.23-.1.47-.13.72-.11.02,0,.03,0,.05,0,.12.04.24.08.36.11.08.05.16.1.24.15.03.03.06.05.09.08.11.12.22.25.29.4.04.08.03.21.12.24.08.03.19,0,.28,0,0,0,0,0,.01,0,.14,0,.27,0,.41,0,.08,0,.16,0,.24,0h.48c.08,0,.16,0,.24,0,.14,0,.29,0,.43,0h.36c.25.02.5.07.7.25.04.04.08.08.12.12.09.14.13.3.17.46v.05c0,.07-.02.15.02.22,0,.02,0,.05,0,.07,0,.36-.01.72-.02,1.09,0,.08,0,.16,0,.24,0,.03.02.03.04.04.34.13.55.38.64.73,0,.02,0,.03,0,.05,0,.15,0,.31-.05.46-.04.08-.08.16-.12.24-.02.03-.05.06-.07.09-.2.19-.42.31-.7.32-.28,0-.51-.1-.72-.29,0,0,0-.01-.01-.01-.02-.02-.04-.05-.06-.07h0c-.08-.11-.14-.23-.18-.37,0-.01,0-.03-.01-.04,0-.03,0-.07-.02-.1,0-.03,0-.06,0-.09,0,0,0-.02,0-.02,0-.03,0-.06,0-.09.03-.15.08-.29.15-.42.04-.05.09-.11.13-.16.07-.06.15-.11.22-.17h0c.09-.02.14-.07.12-.17.01-.04,0-.08,0-.12.03-.41.02-.82.02-1.22,0-.03-.01-.05-.02-.08,0-.02,0-.03,0-.05,0-.03,0-.05-.02-.07,0-.03,0-.05-.03-.07-.06-.13-.17-.13-.29-.12-.12-.02-.24-.05-.36-.03h-2.12c-.08,0-.05.07-.07.12-.06.13-.13.25-.22.36-.05.05-.1.1-.14.15-.11.07-.22.14-.32.21-.04,0-.08.02-.12.05-.05.01-.11.03-.16.04-.02,0-.04,0-.06.01-.02,0-.03,0-.05,0-.15,0-.29.01-.44-.02-.05-.01-.1-.03-.16-.04-.05-.02-.1-.04-.15-.06-.1-.07-.2-.13-.3-.2-.05-.05-.09-.09-.14-.14-.16-.21-.26-.44-.29-.7-.02-.28.04-.55.18-.8.07-.09.14-.18.21-.27,0,0,.02-.02.03-.02Zm.89.28c-.35,0-.65.3-.64.65,0,.35.3.64.65.64.35,0,.64-.3.64-.65,0-.35-.29-.64-.65-.64Z"></path><path class="cls-1" d="m11.4,19.69c.23-.22.51-.34.82-.38.07,0,.14,0,.21,0,.29.04.55.15.77.34.02.02.04.04.06.06.09.11.2.21.23.35.05.23.2.25.39.23.11-.01.16-.07.15-.2,0,0,0,0,0,0,.03.01.04,0,.06-.03.07-.1.15-.17.23-.25.03,0,.06-.02.08-.05.07-.03.15-.06.22-.09.01,0,.03,0,.04-.01.03,0,.05,0,.08-.02.05,0,.09,0,.14,0h.02s.05,0,.07,0c.28.04.51.17.69.39.01.01.02.03.03.04.08.14.14.3.17.46v.16c-.02.16-.07.3-.15.44-.23.32-.53.47-.93.46-.06-.01-.11-.02-.17-.03-.29-.1-.5-.28-.63-.56-.03-.07-.39-.08-.42-.02,0,0,0,.01,0,.02-.05.2-.17.36-.29.52-.04.04-.09.08-.13.12-.21.16-.44.25-.69.29-.02,0-.03,0-.05,0,0,0-.02,0-.02,0h-.14s-.05,0-.07,0c-.32-.05-.59-.19-.81-.42-.19-.21-.3-.46-.34-.74,0-.06,0-.11,0-.17v-.02s0-.06,0-.1c.04-.28.15-.53.33-.75.02-.02.03-.03.05-.05Zm1.28.38h0c-.11-.09-.23-.11-.37-.11-.26,0-.45.12-.56.35-.1.18-.1.37,0,.55.05.14.14.23.27.29.01.02.03.02.05.02.44.2.93-.15.89-.63,0-.15-.06-.28-.16-.39,0-.03-.02-.04-.05-.05-.02-.03-.04-.04-.07-.05Z"></path><path class="cls-1" d="m23.02,17.72s0,.05,0,.07c0,.61,0,1.21,0,1.82,0,1.28,0,2.57,0,3.85,0,.04,0,.08,0,.12,0,.04,0,.08,0,.12-.04.26-.14.5-.3.71h0s-.03.04-.04.06c-.03.03-.06.06-.09.09-.09.07-.18.13-.27.2l-.09.05c-.14.04-.27.08-.41.12-.02,0-.03,0-.05,0-1.2,0-2.41,0-3.61,0-.22,0-.43-.02-.64-.09-.2-.09-.38-.21-.53-.37-.06-.08-.12-.17-.18-.25-.09-.17-.13-.35-.17-.53,0-.12,0-.24,0-.36,0-.12,0-.24,0-.36,0-.12,0-.24,0-.36,0-.12,0-.24,0-.36v-.36c0-.12,0-.24,0-.36v-.36c0-.12,0-.24,0-.36,0-.12,0-.24,0-.36,0-.12,0-.24,0-.36,0-.12,0-.24,0-.36,0-.12,0-.24,0-.36v-.36c0-.12,0-.24,0-.36v-.36c0-.12,0-.24,0-.36,0-.08,0-.16,0-.24.06-.31.19-.59.41-.82.03-.03.06-.05.09-.08.32-.25.68-.32,1.07-.32,1.12.01,2.23,0,3.35,0,.4,0,.74.12,1.04.38.2.21.34.44.41.72,0,.02,0,.03,0,.05,0,.04-.02.09.01.12Z"></path></g></svg> 